<?xml version="1.0" encoding="UTF-8" standalone="no"?>
<!-- Created with Inkscape (http://www.inkscape.org/) -->

<svg
   xmlns:dc="http://purl.org/dc/elements/1.1/"
   xmlns:cc="http://creativecommons.org/ns#"
   xmlns:rdf="http://www.w3.org/1999/02/22-rdf-syntax-ns#"
   xmlns:svg="http://www.w3.org/2000/svg"
   xmlns="http://www.w3.org/2000/svg"
   xmlns:sodipodi="http://sodipodi.sourceforge.net/DTD/sodipodi-0.dtd"
   xmlns:inkscape="http://www.inkscape.org/namespaces/inkscape"
   width="200mm"
   height="100mm"
   viewBox="0 0 200 100"
   version="1.1"
   id="svg5112"
   inkscape:version="0.92.3 (2405546, 2018-03-11)"
   sodipodi:docname="Kopf22_openMouth.svg">
  <defs
     id="defs5106" />
  <sodipodi:namedview
     id="base"
     pagecolor="#ffffff"
     bordercolor="#666666"
     borderopacity="1.0"
     inkscape:pageopacity="0.0"
     inkscape:pageshadow="2"
     inkscape:zoom="2.8"
     inkscape:cx="443.02347"
     inkscape:cy="178.33078"
     inkscape:document-units="mm"
     inkscape:current-layer="layer1"
     showgrid="false"
     units="mm"
     showguides="false"
     inkscape:window-width="2880"
     inkscape:window-height="1675"
     inkscape:window-x="-13"
     inkscape:window-y="-13"
     inkscape:window-maximized="1" />
  <metadata
     id="metadata5109">
    <rdf:RDF>
      <cc:Work
         rdf:about="">
        <dc:format>image/svg+xml</dc:format>
        <dc:type
           rdf:resource="http://purl.org/dc/dcmitype/StillImage" />
        <dc:title></dc:title>
      </cc:Work>
    </rdf:RDF>
  </metadata>
  <g
     inkscape:label="Ebene 1"
     inkscape:groupmode="layer"
     id="layer1"
     transform="translate(0,-197)">
    <g
       id="g2333"
       transform="matrix(1.0470077,0,0,1,-4.4378622,2e-5)">
      <g
         id="g2323">
        <path
           style="opacity:0.7;fill:#000000;fill-opacity:1;stroke-width:1.10118127"
           d="m 99.999997,216.99998 c 0,0 20.546933,-7.07263 35.437753,-7.11152 32.43758,2.50181 58.68642,21.98499 58.63733,49.02537 -0.89158,1.0921 -25.84373,9.33659 -26.79788,10.36638 -0.80304,0.8667 26.76926,0.387 25.926,1.20433 -9.71629,9.41757 -31.62557,15.39937 -43.56726,14.28773 -15.1452,-1.40985 -49.635943,-6.91812 -49.635943,-6.91812 z"
           id="rect5139"
           inkscape:connector-curvature="0"
           sodipodi:nodetypes="cccssscc" />
      </g>
      <path
         sodipodi:open="true"
         d="m 156.48833,225.67983 a 9.2176418,6.5548458 0 0 1 -3.39,8.89422 9.2176418,6.5548458 0 0 1 -12.54645,-2.30564 9.2176418,6.5548458 0 0 1 3.09407,-8.9486 9.2176418,6.5548458 0 0 1 12.61944,2.09457"
         sodipodi:end="5.721192"
         sodipodi:start="5.7683655"
         sodipodi:ry="6.5548458"
         sodipodi:rx="9.2176418"
         sodipodi:cy="228.90729"
         sodipodi:cx="148.46547"
         sodipodi:type="arc"
         id="path5163"
         style="opacity:0.7;fill:#f9f9f9;fill-opacity:1;stroke-width:1.64289808" />
      <path
         d="m 156.62891,227.94036 a 6.1471992,2.1879463 0 0 1 -2.31144,2.97918 6.1471992,2.1879463 0 0 1 -8.37549,-0.8159 6.1471992,2.1879463 0 0 1 2.27317,-2.9829 6.1471992,2.1879463 0 0 1 8.38587,0.80226"
         sodipodi:open="true"
         sodipodi:end="5.7592257"
         sodipodi:start="5.7683655"
         sodipodi:ry="2.1879463"
         sodipodi:rx="6.1471992"
         sodipodi:cy="229.01765"
         sodipodi:cx="151.2785"
         sodipodi:type="arc"
         id="path98"
         style="opacity:0.7;fill:#000000;fill-opacity:1;stroke-width:0.26458332" />
      <path
         sodipodi:nodetypes="cc"
         inkscape:connector-curvature="0"
         id="path2278"
         d="m 125.50662,242.53272 c -8.103,11.78292 -5.96568,20.22764 1.27419,29.10417"
         style="fill:none;stroke:#000000;stroke-width:0.25966558px;stroke-linecap:butt;stroke-linejoin:miter;stroke-opacity:1" />
      <path
         sodipodi:nodetypes="cc"
         inkscape:connector-curvature="0"
         id="path2278-5"
         d="m 107.81844,242.71747 c -8.103005,11.78292 -5.96568,20.22764 1.27419,29.10417"
         style="fill:none;stroke:#000000;stroke-width:0.25966558px;stroke-linecap:butt;stroke-linejoin:miter;stroke-opacity:1" />
      <path
         sodipodi:nodetypes="cc"
         inkscape:connector-curvature="0"
         id="path2278-0"
         d="m 107.81844,242.71747 c -8.103005,11.78292 -5.96568,20.22764 1.27419,29.10417"
         style="fill:none;stroke:#000000;stroke-width:0.25966558px;stroke-linecap:butt;stroke-linejoin:miter;stroke-opacity:1" />
      <path
         sodipodi:nodetypes="cc"
         inkscape:connector-curvature="0"
         id="path2278-9"
         d="m 116.91984,242.1505 c -8.103,11.78292 -5.96568,20.22764 1.27419,29.10417"
         style="fill:none;stroke:#000000;stroke-width:0.25966558px;stroke-linecap:butt;stroke-linejoin:miter;stroke-opacity:1" />
    </g>
  </g>
</svg>
