<?xml version="1.0" encoding="UTF-8" standalone="no"?>
<!-- Created with Inkscape (http://www.inkscape.org/) -->

<svg
   xmlns:dc="http://purl.org/dc/elements/1.1/"
   xmlns:cc="http://creativecommons.org/ns#"
   xmlns:rdf="http://www.w3.org/1999/02/22-rdf-syntax-ns#"
   xmlns:svg="http://www.w3.org/2000/svg"
   xmlns="http://www.w3.org/2000/svg"
   xmlns:sodipodi="http://sodipodi.sourceforge.net/DTD/sodipodi-0.dtd"
   xmlns:inkscape="http://www.inkscape.org/namespaces/inkscape"
   width="200mm"
   height="100mm"
   viewBox="0 0 200 100"
   version="1.1"
   id="svg5137"
   inkscape:version="0.92.3 (2405546, 2018-03-11)"
   sodipodi:docname="Form2.svg">
  <defs
     id="defs5131" />
  <sodipodi:namedview
     id="base"
     pagecolor="#ffffff"
     bordercolor="#666666"
     borderopacity="1.0"
     inkscape:pageopacity="0.0"
     inkscape:pageshadow="2"
     inkscape:zoom="2.5"
     inkscape:cx="372.90678"
     inkscape:cy="213.47582"
     inkscape:document-units="mm"
     inkscape:current-layer="layer1"
     showgrid="false"
     units="mm"
     inkscape:window-width="2880"
     inkscape:window-height="1675"
     inkscape:window-x="-13"
     inkscape:window-y="-13"
     inkscape:window-maximized="1" />
  <metadata
     id="metadata5134">
    <rdf:RDF>
      <cc:Work
         rdf:about="">
        <dc:format>image/svg+xml</dc:format>
        <dc:type
           rdf:resource="http://purl.org/dc/dcmitype/StillImage" />
        <dc:title />
      </cc:Work>
    </rdf:RDF>
  </metadata>
  <g
     inkscape:label="Ebene 1"
     inkscape:groupmode="layer"
     id="layer1"
     transform="translate(0,-196.99998)">
    <path
       style="opacity:1;fill:#474444;fill-opacity:1;stroke-width:1.10118127"
       d="m 100,216.99998 c 0,0 36.38337,-19.35687 50,-19.96272 10.92597,-0.48599 27.41468,3.74115 37.29047,14.95761 7.39829,8.40267 12.07676,17.66557 12.70953,34.95753 -0.62689,13.52742 -4.7194,22.41853 -10.83968,29.9153 -10.28807,12.60184 -24.95081,21.32256 -39.16032,19.99981 -15.1452,-1.40984 -50,-19.86753 -50,-19.86753 z"
       id="rect5139"
       inkscape:connector-curvature="0"
       sodipodi:nodetypes="csacascc" />
    <path
       style="opacity:0.7;fill:#f9f9f9;fill-opacity:1;stroke-width:1.64289808"
       id="path5163"
       sodipodi:type="arc"
       sodipodi:cx="171.59457"
       sodipodi:cy="231.31828"
       sodipodi:rx="9.2176418"
       sodipodi:ry="6.5548458"
       sodipodi:start="5.7683655"
       sodipodi:end="5.1569224"
       d="m 179.61744,228.09082 a 9.2176418,6.5548458 0 0 1 -2.31561,8.37472 9.2176418,6.5548458 0 0 1 -11.99208,-0.35229 9.2176418,6.5548458 0 0 1 -1.33636,-8.482 9.2176418,6.5548458 0 0 1 11.58511,-2.23076"
       sodipodi:open="true" />
    <path
       style="opacity:0.7;fill:#f9f9f9;fill-opacity:1;stroke-width:0.79129642"
       d="m 160.15087,266.84365 1.67493,-2.85222 1.27149,3.20875 0.88161,3.20886 -5.70306,-0.11873 z"
       id="rect5182"
       inkscape:connector-curvature="0"
       sodipodi:nodetypes="cccccc" />
    <path
       style="opacity:0.7;fill:#f9f9f9;fill-opacity:1;stroke-width:0.79129642"
       d="m 165.85392,266.96238 1.67493,-2.85223 1.27149,3.20876 0.88161,3.20885 -5.70306,-0.11872 z"
       id="rect5182-9"
       inkscape:connector-curvature="0"
       sodipodi:nodetypes="cccccc" />
    <path
       style="opacity:0.7;fill:#f9f9f9;fill-opacity:1;stroke-width:0.79129642"
       d="m 171.55698,267.0811 1.67493,-2.85222 1.27148,3.20876 0.88161,3.20885 -5.70305,-0.11873 z"
       id="rect5182-0"
       inkscape:connector-curvature="0"
       sodipodi:nodetypes="cccccc" />
    <path
       style="opacity:0.7;fill:#f9f9f9;fill-opacity:1;stroke-width:0.79129642"
       d="m 169.11279,261.57045 1.67493,2.85222 1.27148,-3.20876 0.88161,-3.20885 -5.70305,0.11873 z"
       id="rect5182-97"
       inkscape:connector-curvature="0"
       sodipodi:nodetypes="cccccc" />
    <path
       style="opacity:0.7;fill:#f9f9f9;fill-opacity:1;stroke-width:0.79129642"
       d="m 163.40973,261.68917 1.67493,2.85223 1.27149,-3.20876 0.88161,-3.20885 -5.70306,0.11872 z"
       id="rect5182-2"
       inkscape:connector-curvature="0"
       sodipodi:nodetypes="cccccc" />
    <path
       style="opacity:0.7;fill:#f9f9f9;fill-opacity:1;stroke-width:0.79129642"
       d="m 174.81584,261.45172 1.67493,2.85222 1.27149,-3.20875 0.88161,-3.20886 -5.70306,0.11873 z"
       id="rect5182-5"
       inkscape:connector-curvature="0"
       sodipodi:nodetypes="cccccc" />
  </g>
</svg>
