<?xml version="1.0" encoding="UTF-8"?>
<svg enable-background="new 0 0 220 240" viewBox="0 0 220 240" xmlns="http://www.w3.org/2000/svg">
 <defs>
  <linearGradient id="u" x1="53.706" x2="145.68" gradientTransform="matrix(.9957 -.0923 .0923 .9957 -11.662 16.7)" gradientUnits="userSpaceOnUse">
   <stop stop-color="#d0772d" offset="0"/>
   <stop stop-color="#915d7d" offset="1"/>
  </linearGradient>
  <linearGradient id="j" x1="10.78" x2="91.565" gradientTransform="matrix(.9957 -.0923 .0923 .9957 -11.662 16.7)" gradientUnits="userSpaceOnUse">
   <stop stop-color="#d0772d" offset="0"/>
   <stop stop-color="#fad895" offset=".5212"/>
   <stop stop-color="#b48689" offset=".8267"/>
   <stop stop-color="#915d7d" offset="1"/>
  </linearGradient>
  <linearGradient id="g" x1="51.174" x2="97.95" gradientTransform="matrix(.9957 -.0923 .0923 .9957 -11.662 16.7)" gradientUnits="userSpaceOnUse">
   <stop stop-color="#d0772d" offset="0"/>
   <stop stop-color="#fad895" offset=".5212"/>
   <stop stop-color="#b48689" offset=".8267"/>
   <stop stop-color="#915d7d" offset="1"/>
  </linearGradient>
  <linearGradient id="f" x1="19.654" x2="95.918" gradientTransform="matrix(.9957 -.0923 .0923 .9957 -11.662 16.7)" gradientUnits="userSpaceOnUse">
   <stop stop-color="#d0772d" offset="0"/>
   <stop stop-color="#fad895" offset=".5212"/>
   <stop stop-color="#b48689" offset=".8267"/>
   <stop stop-color="#915d7d" offset="1"/>
  </linearGradient>
  <linearGradient id="e" x1="71.737" x2="99.686" gradientTransform="matrix(.9957 -.0923 .0923 .9957 -11.662 16.7)" gradientUnits="userSpaceOnUse">
   <stop stop-color="#d0772d" offset="0"/>
   <stop stop-color="#fad895" offset=".5212"/>
   <stop stop-color="#b48689" offset=".8267"/>
   <stop stop-color="#915d7d" offset="1"/>
  </linearGradient>
  <linearGradient id="d" x1="37.127" x2="97.967" gradientTransform="matrix(.9957 -.0923 .0923 .9957 -11.662 16.7)" gradientUnits="userSpaceOnUse">
   <stop stop-color="#d0772d" offset="0"/>
   <stop stop-color="#fad895" offset=".5212"/>
   <stop stop-color="#b48689" offset=".8267"/>
   <stop stop-color="#915d7d" offset="1"/>
  </linearGradient>
  <linearGradient id="c" x1="12.911" x2="94.075" gradientTransform="matrix(.9957 -.0923 .0923 .9957 -11.662 16.7)" gradientUnits="userSpaceOnUse">
   <stop stop-color="#d0772d" offset="0"/>
   <stop stop-color="#fad895" offset=".5212"/>
   <stop stop-color="#b48689" offset=".8267"/>
   <stop stop-color="#915d7d" offset="1"/>
  </linearGradient>
  <linearGradient id="b" x1="69.076" x2="109.55" gradientTransform="matrix(.9957 -.0923 .0923 .9957 -11.662 16.7)" gradientUnits="userSpaceOnUse">
   <stop stop-color="#d0772d" offset="0"/>
   <stop stop-color="#fad895" offset=".5212"/>
   <stop stop-color="#b48689" offset=".8267"/>
   <stop stop-color="#915d7d" offset="1"/>
  </linearGradient>
  <linearGradient id="a" x1="39.695" x2="95.404" gradientTransform="matrix(.9957 -.0923 .0923 .9957 -11.662 16.7)" gradientUnits="userSpaceOnUse">
   <stop stop-color="#d0772d" offset="0"/>
   <stop stop-color="#fad895" offset=".5212"/>
   <stop stop-color="#b48689" offset=".8267"/>
   <stop stop-color="#915d7d" offset="1"/>
  </linearGradient>
  <linearGradient id="ae" x1="60.71" x2="105.96" gradientTransform="matrix(.9957 -.0923 .0923 .9957 -11.662 16.7)" gradientUnits="userSpaceOnUse">
   <stop stop-color="#d0772d" offset="0"/>
   <stop stop-color="#fad895" offset=".5212"/>
   <stop stop-color="#b48689" offset=".8267"/>
   <stop stop-color="#915d7d" offset="1"/>
  </linearGradient>
  <linearGradient id="ad" x1="22.003" x2="93.565" gradientTransform="matrix(.9957 -.0923 .0923 .9957 -11.662 16.7)" gradientUnits="userSpaceOnUse">
   <stop stop-color="#d0772d" offset="0"/>
   <stop stop-color="#fad895" offset=".5212"/>
   <stop stop-color="#b48689" offset=".8267"/>
   <stop stop-color="#915d7d" offset="1"/>
  </linearGradient>
  <linearGradient id="ac" x1="136.48" x2="217.69" gradientTransform="matrix(.9957 -.0923 .0923 .9957 -11.662 16.7)" gradientUnits="userSpaceOnUse">
   <stop stop-color="#d0772d" offset="0"/>
   <stop stop-color="#fad895" offset=".5212"/>
   <stop stop-color="#b48689" offset=".8267"/>
   <stop stop-color="#915d7d" offset="1"/>
  </linearGradient>
  <linearGradient id="ab" x1="130.83" x2="184.09" gradientTransform="matrix(.9957 -.0923 .0923 .9957 -11.662 16.7)" gradientUnits="userSpaceOnUse">
   <stop stop-color="#d0772d" offset="0"/>
   <stop stop-color="#fad895" offset=".5212"/>
   <stop stop-color="#b48689" offset=".8267"/>
   <stop stop-color="#915d7d" offset="1"/>
  </linearGradient>
  <linearGradient id="aa" x1="132.97" x2="212.58" gradientTransform="matrix(.9957 -.0923 .0923 .9957 -11.662 16.7)" gradientUnits="userSpaceOnUse">
   <stop stop-color="#d0772d" offset="0"/>
   <stop stop-color="#fad895" offset=".5212"/>
   <stop stop-color="#b48689" offset=".8267"/>
   <stop stop-color="#915d7d" offset="1"/>
  </linearGradient>
  <linearGradient id="z" x1="129.71" x2="164.41" gradientTransform="matrix(.9957 -.0923 .0923 .9957 -11.662 16.7)" gradientUnits="userSpaceOnUse">
   <stop stop-color="#d0772d" offset="0"/>
   <stop stop-color="#fad895" offset=".5212"/>
   <stop stop-color="#b48689" offset=".8267"/>
   <stop stop-color="#915d7d" offset="1"/>
  </linearGradient>
  <linearGradient id="y" x1="121.03" x2="173.08" gradientTransform="matrix(.9957 -.0923 .0923 .9957 -11.662 16.7)" gradientUnits="userSpaceOnUse">
   <stop stop-color="#d0772d" offset="0"/>
   <stop stop-color="#fad895" offset=".5212"/>
   <stop stop-color="#b48689" offset=".8267"/>
   <stop stop-color="#915d7d" offset="1"/>
  </linearGradient>
  <linearGradient id="x" x1="132.77" x2="213.68" gradientTransform="matrix(.9957 -.0923 .0923 .9957 -11.662 16.7)" gradientUnits="userSpaceOnUse">
   <stop stop-color="#d0772d" offset="0"/>
   <stop stop-color="#fad895" offset=".5212"/>
   <stop stop-color="#b48689" offset=".8267"/>
   <stop stop-color="#915d7d" offset="1"/>
  </linearGradient>
  <linearGradient id="w" x1="114.06" x2="156.97" gradientTransform="matrix(.9957 -.0923 .0923 .9957 -11.662 16.7)" gradientUnits="userSpaceOnUse">
   <stop stop-color="#d0772d" offset="0"/>
   <stop stop-color="#fad895" offset=".5212"/>
   <stop stop-color="#b48689" offset=".8267"/>
   <stop stop-color="#915d7d" offset="1"/>
  </linearGradient>
  <linearGradient id="v" x1="133.45" x2="196.04" gradientTransform="matrix(.9957 -.0923 .0923 .9957 -11.662 16.7)" gradientUnits="userSpaceOnUse">
   <stop stop-color="#d0772d" offset="0"/>
   <stop stop-color="#fad895" offset=".5212"/>
   <stop stop-color="#b48689" offset=".8267"/>
   <stop stop-color="#915d7d" offset="1"/>
  </linearGradient>
  <linearGradient id="t" x1="116.28" x2="143.33" gradientTransform="matrix(.9957 -.0923 .0923 .9957 -11.662 16.7)" gradientUnits="userSpaceOnUse">
   <stop stop-color="#d0772d" offset="0"/>
   <stop stop-color="#fad895" offset=".5212"/>
   <stop stop-color="#b48689" offset=".8267"/>
   <stop stop-color="#915d7d" offset="1"/>
  </linearGradient>
  <linearGradient id="s" x1="123.77" x2="175.58" gradientTransform="matrix(.9957 -.0923 .0923 .9957 -11.662 16.7)" gradientUnits="userSpaceOnUse">
   <stop stop-color="#d0772d" offset="0"/>
   <stop stop-color="#fad895" offset=".5212"/>
   <stop stop-color="#b48689" offset=".8267"/>
   <stop stop-color="#915d7d" offset="1"/>
  </linearGradient>
  <linearGradient id="r" x1="126.46" x2="202.35" gradientTransform="matrix(.9957 -.0923 .0923 .9957 -11.662 16.7)" gradientUnits="userSpaceOnUse">
   <stop stop-color="#d0772d" offset="0"/>
   <stop stop-color="#fad895" offset=".5212"/>
   <stop stop-color="#b48689" offset=".8267"/>
   <stop stop-color="#915d7d" offset="1"/>
  </linearGradient>
  <linearGradient id="q" x1="116.2" x2="140.68" gradientTransform="matrix(.9957 -.0923 .0923 .9957 -11.662 16.7)" gradientUnits="userSpaceOnUse">
   <stop stop-color="#d0772d" offset="0"/>
   <stop stop-color="#fad895" offset=".5212"/>
   <stop stop-color="#b48689" offset=".8267"/>
   <stop stop-color="#915d7d" offset="1"/>
  </linearGradient>
  <linearGradient id="p" x1="108.23" x2="135.52" gradientTransform="matrix(.9957 -.0923 .0923 .9957 -11.662 16.7)" gradientUnits="userSpaceOnUse">
   <stop stop-color="#d0772d" offset="0"/>
   <stop stop-color="#fad895" offset=".5212"/>
   <stop stop-color="#b48689" offset=".8267"/>
   <stop stop-color="#915d7d" offset="1"/>
  </linearGradient>
  <linearGradient id="o" x1="83.472" x2="115.9" gradientTransform="matrix(.9957 -.0923 .0923 .9957 -11.662 16.7)" gradientUnits="userSpaceOnUse">
   <stop stop-color="#d0772d" offset="0"/>
   <stop stop-color="#fad895" offset=".5212"/>
   <stop stop-color="#b48689" offset=".8267"/>
   <stop stop-color="#915d7d" offset="1"/>
  </linearGradient>
  <linearGradient id="n" x1="91.917" x2="115.68" gradientTransform="matrix(.9957 -.0923 .0923 .9957 -11.662 16.7)" gradientUnits="userSpaceOnUse">
   <stop stop-color="#d0772d" offset="0"/>
   <stop stop-color="#fad895" offset=".5212"/>
   <stop stop-color="#b48689" offset=".8267"/>
   <stop stop-color="#915d7d" offset="1"/>
  </linearGradient>
  <linearGradient id="m" x1="95.92" x2="122.03" gradientTransform="matrix(.9957 -.0923 .0923 .9957 -11.662 16.7)" gradientUnits="userSpaceOnUse">
   <stop stop-color="#d0772d" offset="0"/>
   <stop stop-color="#fad895" offset=".5212"/>
   <stop stop-color="#b48689" offset=".8267"/>
   <stop stop-color="#915d7d" offset="1"/>
  </linearGradient>
  <linearGradient id="l" x1="103.31" x2="126.46" gradientTransform="matrix(.9957 -.0923 .0923 .9957 -11.662 16.7)" gradientUnits="userSpaceOnUse">
   <stop stop-color="#d0772d" offset="0"/>
   <stop stop-color="#fad895" offset=".5212"/>
   <stop stop-color="#b48689" offset=".8267"/>
   <stop stop-color="#915d7d" offset="1"/>
  </linearGradient>
  <linearGradient id="k" x1="91.484" x2="121.4" gradientTransform="matrix(.9957 -.0923 .0923 .9957 -11.662 16.7)" gradientUnits="userSpaceOnUse">
   <stop stop-color="#d0772d" offset="0"/>
   <stop stop-color="#fad895" offset=".5212"/>
   <stop stop-color="#b48689" offset=".8267"/>
   <stop stop-color="#915d7d" offset="1"/>
  </linearGradient>
  <linearGradient id="i" x1="69.076" x2="102.81" gradientTransform="matrix(.9957 -.0923 .0923 .9957 -11.662 16.7)" gradientUnits="userSpaceOnUse">
   <stop stop-color="#d0772d" offset="0"/>
   <stop stop-color="#fad895" offset=".5212"/>
   <stop stop-color="#b48689" offset=".8267"/>
   <stop stop-color="#915d7d" offset="1"/>
  </linearGradient>
  <linearGradient id="h" x1="53.697" x2="98.719" gradientTransform="matrix(.9957 -.0923 .0923 .9957 -11.662 16.7)" gradientUnits="userSpaceOnUse">
   <stop stop-color="#d0772d" offset="0"/>
   <stop stop-color="#fad895" offset=".5212"/>
   <stop stop-color="#b48689" offset=".8267"/>
   <stop stop-color="#915d7d" offset="1"/>
  </linearGradient>
 </defs>
 <path d="m68.943 202.5s18.371-24.854 10.047-98.401c0 0-2.063-22.252 38.237-17.344s18.522 29.483 18.522 29.483 0.042 61.268 3.634 79.73 31.063 30.949-1.404 29.449-30.073-8.112-30.073-8.112-2.293-12.567-23.281 0.279c-20.985 12.849-32.596 1.144-15.682-15.084z" fill="url(#u)"/>
 <path d="m86.681 98.231s-46.984-26.092-68.632 4.86 0.617 5.737 0.578 6.227 22.258-26.607 57.686-5.349c0 0 17.099 6.042 10.368-5.738z" fill="url(#j)"/>
 <path d="m89.242 102.77s-48.043 24.089-34.688 59.419 5.084 2.728 5.467 3.034-9.422-33.386 28.112-50.654c0 0 14.633-10.715 1.109-11.799z" fill="url(#g)"/>
 <path d="m90.305 102.42s-51.989-13.619-65.28 21.736 2.019 5.404 2.104 5.889c0.084 0.483 14.961-31.299 54.555-19.494 0 0 18.065 1.611 8.621-8.131z" fill="url(#f)"/>
 <path d="m90.194 107.86s-33.63 41.919-6.766 68.469 5.758 0.359 6.235 0.479-22.48-26.422 4.442-57.761c0 0 8.834-15.838-3.911-11.187z" fill="url(#e)"/>
 <path d="m93.586 90.725s-9.964-52.812-47.604-49.677-4.019 4.14-4.42 4.423 34.69 0.113 40.982 40.946c1e-3 0 6.284 17.014 11.042 4.308z" fill="url(#d)"/>
 <path d="m88.72,90.393c0,0-45.348-28.841-68.799.767s.273,5.763.206,6.25 23.803-25.236 57.901-1.906c0,0 16.711,7.049 10.692-5.111z" fill="url(#c)"/>
 <path d="m101.96 89.267s9.986-52.807-26.203-63.619-5.252 2.389-5.729 2.507 32.259 12.758 23.224 53.074c0 0-0.357 18.133 8.708 8.038z" fill="url(#b)"/>
 <path d="m87.538 102.99s-52.081 13.263-46.587 50.632 4.384 3.751 4.693 4.134-2.068-34.63 38.289-43.477c0 0 16.585-7.339 3.605-11.289z" fill="url(#a)"/>
 <path d="m97.625 107.72s-47.163 25.769-32.569 60.605 5.178 2.547 5.572 2.841-10.594-33.032 26.306-51.616c0 0 14.246-11.224 0.691-11.83z" fill="url(#ae)"/>
 <path d="m89.116 90.18s-22.089-48.994-57.94-37.107-2.934 4.969-3.257 5.339 33.746-8.04 49.454 30.175c-1e-3 0 10.102 15.061 11.743 1.593z" fill="url(#ad)"/>
 <path d="m133.18 94.524s35.616-40.247 66.333-18.27 1.33 5.614 1.529 6.063-29.848-17.678-56.174 14.164c1e-3 1e-3 -14.113 11.392-11.688-1.957z" fill="url(#ac)"/>
 <path d="m132.28 99.656s53.321 6.716 52.493 44.478-3.887 4.265-4.145 4.683-2.234-34.619-43.375-38.404c0 0-17.364-5.231-4.973-10.757z" fill="url(#ab)"/>
 <path d="m131.16 99.678s44.488-30.152 68.793-1.241-0.104 5.769-0.023 6.253-24.529-24.531-57.932-0.216c0 1e-3 -16.498 7.534-10.838-4.796z" fill="url(#aa)"/>
 <path d="m133.08 104.78s45.67 28.329 29.179 62.31-5.31 2.255-5.719 2.527 12.398-32.398-23.423-52.987c0 0-13.604-11.992-0.037-11.85z" fill="url(#z)"/>
 <path d="m116.543,87.707c0,0-8.189-53.116 28.347-62.693 36.535-9.578 5.167,2.565 5.64,2.7 .473.133-32.673,11.657-25.011,52.255 .001-.001-.257,18.134-8.976,7.738z" fill="url(#y)"/>
 <path d="m128.65 87.812s33.158-42.295 65.128-22.185 1.662 5.525 1.888 5.962-30.848-15.87-55.231 17.482c0 0-13.411 12.211-11.785-1.259z" fill="url(#x)"/>
 <path d="m111.53 88.101s-16.988-50.987 17.422-66.561 5.525 1.662 6.013 1.715-30.253 16.975-15.886 55.712c1e-3 0 2.791 17.92-7.549 9.134z" fill="url(#w)"/>
 <path d="m133.96 99.295s53.526-4.835 60.787 32.231c7.264 37.064-2.885 4.997-3.049 5.46s-9.579-33.342-50.58-28.246c1e-3 0-18.082-1.397-7.158-9.445z" fill="url(#v)"/>
 <path d="m126.85 107.87s34.176 41.477 7.662 68.376-5.752 0.434-6.229 0.562c-0.474 0.125 22.133-26.715-5.197-57.7 0 0-9.042-15.722 3.764-11.238z" fill="url(#t)"/>
 <path d="m126.02 107.12s53.052 8.595 50.891 46.304-4.035 4.124-4.307 4.532-1.009-34.675-41.993-39.911c0 0-17.169-5.84-4.591-10.925z" fill="url(#s)"/>
 <path d="m121.82 86.528s19.568-50.054 55.978-40.006 3.181 4.813 3.522 5.166-34.111-6.312-47.854 32.651c1e-3 0-9.324 15.556-11.646 2.189z" fill="url(#r)"/>
 <path d="m121.27 110.69s27.73 11.081 16.824 38.024-3.154 33.452-3.154 33.452 7.641 11.634-2.603 3.458-4.188-34.413-4.188-34.413 12.14-22.842-12.548-32.986c1e-3 0-6.037-9.408 5.669-7.535z" fill="url(#q)"/>
 <path d="m122.12 111.53s24.223 17.466 7.116 40.967-11.161 31.692-11.161 31.692 4.597 13.138-3.361 2.724 4.268-34.403 4.268-34.403 17.309-19.222-4.188-35.042c1e-3 0-3.578-10.59 7.326-5.938z" fill="url(#p)"/>
 <path d="m106.44 109.23s-28.031 10.298-17.885 37.538 2.213 33.525 2.213 33.525-7.964 11.415 2.504 3.531c10.468-7.886 5.154-34.283 5.154-34.283s-11.494-23.172 13.469-32.62c1e-3 0 6.299-9.235-5.455-7.691z" fill="url(#o)"/>
 <path d="m105.56 110.04s-24.703 16.779-8.263 40.751 10.266 31.994 10.266 31.994-4.964 13.002 3.285 2.816c8.247-10.184-3.301-34.509-3.301-34.509s-16.762-19.701 5.17-34.912c-1e-3 1e-3 3.873-10.484-7.157-6.14z" fill="url(#n)"/>
 <path d="m112.82 110.99s-31.787 43.334-3.799 68.699 5.769 0.109 6.25 0.21-23.602-25.425 1.939-57.901c0-1e-3 8.142-16.205-4.39-11.008z" fill="url(#m)"/>
 <path d="m106.57 90.134s24.234-17.451 7.144-40.964-11.141-31.699-11.141-31.699 4.605-13.135-3.36-2.727 4.246 34.406 4.246 34.406 17.296 19.234-4.211 35.041c0-1e-3 -3.585 10.587 7.322 5.943z" fill="url(#l)"/>
 <path d="m107.2 89.117s19.286-22.799-2.989-41.474-18.485-28.058-18.485-28.058 1.288-13.859-3.919-1.833 12.45 32.354 12.45 32.354 21.439 14.474 4.4 35.017c0 1e-3 -0.915 11.143 8.543 3.994z" fill="url(#k)"/>
 <path d="m90.704 92.895s17.296-24.344-6.473-41.075-20.784-26.4-20.784-26.4 0.115-13.918-4.061-1.496 15.133 31.19 15.133 31.19 22.583 12.615 7.336 34.522c-1e-3 0 0.027 11.177 8.849 3.259z" fill="url(#i)"/>
 <path d="m90.968 91.731s10.887-27.808-16.227-38.285-26.558-20.581-26.558-20.581-3.258-13.532-4.301-0.468 22.235 26.597 22.235 26.597 24.966 6.771 15.477 31.718c0-1e-3 2.732 10.839 9.374 1.019z" fill="url(#h)"/>
</svg>
